<?xml version="1.0" encoding="UTF-8" standalone="no"?>
<!-- Created with Inkscape (http://www.inkscape.org/) -->

<svg
   xmlns:dc="http://purl.org/dc/elements/1.1/"
   xmlns:cc="http://creativecommons.org/ns#"
   xmlns:rdf="http://www.w3.org/1999/02/22-rdf-syntax-ns#"
   xmlns:svg="http://www.w3.org/2000/svg"
   xmlns="http://www.w3.org/2000/svg"
   xmlns:sodipodi="http://sodipodi.sourceforge.net/DTD/sodipodi-0.dtd"
   xmlns:inkscape="http://www.inkscape.org/namespaces/inkscape"
   version="1.0"
   width="48"
   height="48"
   id="svg3332"
   inkscape:version="0.47 r22583"
   sodipodi:docname="brasero-disc-10.svg">
<acyl-settings>
<linearGradient
     id="linearGradient4321">
    <stop
       style="stop-color:#8B8B8B;stop-opacity:1.0;"
       offset="0.0"
       id="stop1" />
    <stop
       style="stop-color:#505050;stop-opacity:1.0;"
       offset="1.0"
       id="stop2" />
  </linearGradient>
<linearGradient
     inkscape:collect="always"
     xlink:href="#linearGradient4321"
     id="acyl_gradient"
     x1="0.0%"
     y1="100.0%"
     x2="100.0%"
     y2="0.0%" />
<filter>
    </filter>
<use id="1" style="fill:url(#acyl_gradient);filter:url(#filter1111)" xlink:href="#path-main" />
</acyl-settings>
<defs
     id="defs3334">
  </defs>
  <path
     style="fill:none"
     d="M 24 2 C 11.856 2 2 11.856002 2 24 C 2 36.143997 11.856 46 24 46 C 36.144001 46 46 36.143997 46 24 C 46 11.856002 36.144001 2 24 2 z M 24 3 L 24 14.71875 C 26.559764 14.71875 28.883814 15.758814 30.5625 17.4375 L 38.84375 9.15625 C 47.044761 17.35726 47.04476 30.642739 38.84375 38.84375 C 30.64274 47.044761 17.357261 47.04476 9.15625 38.84375 C 0.95523949 30.64274 0.95524021 17.357261 9.15625 9.15625 C 13.094513 5.2179871 18.430455 3.0000016 24 3 z M 24 16.03125 L 24 17.96875 C 25.666823 17.96875 27.188152 18.625652 28.28125 19.71875 L 29.65625 18.34375 C 28.211799 16.899299 26.202588 16.03125 24 16.03125 z "
     id="path-main" />
</svg>
