<?xml version="1.0" encoding="UTF-8" standalone="no"?>
<!-- Created with Inkscape (http://www.inkscape.org/) -->

<svg
   xmlns:dc="http://purl.org/dc/elements/1.1/"
   xmlns:cc="http://creativecommons.org/ns#"
   xmlns:rdf="http://www.w3.org/1999/02/22-rdf-syntax-ns#"
   xmlns:svg="http://www.w3.org/2000/svg"
   xmlns="http://www.w3.org/2000/svg"
   xmlns:xlink="http://www.w3.org/1999/xlink"
   xmlns:sodipodi="http://sodipodi.sourceforge.net/DTD/sodipodi-0.dtd"
   xmlns:inkscape="http://www.inkscape.org/namespaces/inkscape"
   version="1.0"
   width="48"
   height="48"
   id="svg4289"
   inkscape:version="0.47pre4 r22446"
   sodipodi:docname="nm-vpn-connecting13.svg">  

<acyl-settings>
<linearGradient
     id="linearGradient4321">
    <stop
       style="stop-color:#8B8B8B;stop-opacity:1.0;"
       offset="0.0"
       id="stop1" />
    <stop
       style="stop-color:#505050;stop-opacity:1.0;"
       offset="1.0"
       id="stop2" />
  </linearGradient>
<linearGradient
     inkscape:collect="always"
     xlink:href="#linearGradient4321"
     id="acyl_gradient"
     x1="0.0%"
     y1="100.0%"
     x2="100.0%"
     y2="0.0%" />
<filter>
    </filter>
<use id="1" style="fill:url(#acyl_gradient);filter:url(#filter1111)" xlink:href="#path-main" />
</acyl-settings>
<defs
     id="defs4291">
  </defs>
  <path
     style="fill:none"
     id="path-main"
       d="m 16.247297,8.8786916 c -4.568422,0 -7.8315824,2.7327814 -7.8315824,7.2020304 l 0,3.928381 -1.3052643,0 c -1.3052628,0 -1.9578957,0.654731 -1.9578957,1.96419 l 0,11.130409 c 0,0.641848 0.6526329,1.96419 1.9578957,1.96419 l 19.1769467,0 c 1.054641,-0.0062 1.707274,-1.322343 1.707274,-1.96419 l 0,-11.130409 c 0,-1.309459 -0.652633,-1.97038 -1.957896,-1.97038 l -1.305263,0.0062 0,-3.92838 c 0,-4.583119 -3.263158,-7.2020399 -7.831582,-7.2020399 l -0.652633,0 z m 0,3.2736504 0.652633,0 c 4.568424,0 4.568424,3.92838 4.568424,5.23784 l 0,2.618921 -9.789479,0 0,-2.618921 c 0,-1.30946 0,-5.23784 4.568422,-5.23784 z" />
</svg>
