<?xml version="1.0" encoding="UTF-8" standalone="no"?>
<!-- Created with Inkscape (http://www.inkscape.org/) -->

<svg
   xmlns:dc="http://purl.org/dc/elements/1.1/"
   xmlns:cc="http://creativecommons.org/ns#"
   xmlns:rdf="http://www.w3.org/1999/02/22-rdf-syntax-ns#"
   xmlns:svg="http://www.w3.org/2000/svg"
   xmlns="http://www.w3.org/2000/svg"
   xmlns:xlink="http://www.w3.org/1999/xlink"
   xmlns:sodipodi="http://sodipodi.sourceforge.net/DTD/sodipodi-0.dtd"
   xmlns:inkscape="http://www.inkscape.org/namespaces/inkscape"
   version="1.0"
   width="48"
   height="48"
   id="svg2169"
   inkscape:version="0.47 r22583"
   sodipodi:docname="back.svg">
<acyl-settings>
<linearGradient
     id="linearGradient4321">
    <stop
       style="stop-color:#8B8B8B;stop-opacity:1.0;"
       offset="0.0"
       id="stop1" />
    <stop
       style="stop-color:#505050;stop-opacity:1.0;"
       offset="1.0"
       id="stop2" />
  </linearGradient>
<linearGradient
     inkscape:collect="always"
     xlink:href="#linearGradient4321"
     id="acyl_gradient"
     x1="0.0%"
     y1="100.0%"
     x2="100.0%"
     y2="0.0%" />
<filter>
    </filter>
<use id="1" style="fill:url(#acyl_gradient);filter:url(#filter1111)" xlink:href="#path-main" />
</acyl-settings>
  <path
     id="path-main"
     d="M 15.560188,2.0023641 C 13.231469,1.9047381 11.632003,4.8533683 13.011525,6.7420988 18.65721,12.563842 24.429659,18.264834 30.16024,24.004083 24.508382,29.679265 18.826188,35.325686 13.193295,41.018888 c -1.563302,1.73865 -0.269041,4.838785 2.061933,4.962914 1.946885,0.220596 3.023375,-1.615255 4.290386,-2.744266 5.7558,-5.769534 11.52427,-11.52666 17.272108,-17.303963 1.188493,-1.344482 0.729601,-3.487001 -0.646307,-4.51558 C 29.929432,15.181519 23.71409,8.917201 17.455417,2.698178 16.929072,2.2567224 16.249057,1.9987439 15.560188,2.0023641 z"
     style="fill:none" />
</svg>
