<?xml version="1.0" encoding="UTF-8" standalone="no"?>
<!-- Created with Inkscape (http://www.inkscape.org/) -->

<svg
   xmlns:dc="http://purl.org/dc/elements/1.1/"
   xmlns:cc="http://creativecommons.org/ns#"
   xmlns:rdf="http://www.w3.org/1999/02/22-rdf-syntax-ns#"
   xmlns:svg="http://www.w3.org/2000/svg"
   xmlns="http://www.w3.org/2000/svg"
   xmlns:xlink="http://www.w3.org/1999/xlink"
   xmlns:sodipodi="http://sodipodi.sourceforge.net/DTD/sodipodi-0.dtd"
   xmlns:inkscape="http://www.inkscape.org/namespaces/inkscape"
   version="1.0"
   width="48"
   height="48"
   id="svg2383"
   inkscape:version="0.47pre4 r22446"
   sodipodi:docname="folder-bookmarks.svg">
<acyl-settings>
<linearGradient
     id="linearGradient4321">
    <stop
       style="stop-color:#8B8B8B;stop-opacity:1.0;"
       offset="0.0"
       id="stop1" />
    <stop
       style="stop-color:#505050;stop-opacity:1.0;"
       offset="1.0"
       id="stop2" />
  </linearGradient>
<linearGradient
     inkscape:collect="always"
     xlink:href="#linearGradient4321"
     id="acyl_gradient"
     x1="0.0%"
     y1="100.0%"
     x2="100.0%"
     y2="0.0%" />
<filter>
    </filter>
<use id="1" style="fill:url(#acyl_gradient);filter:url(#filter1111)" xlink:href="#path-main" />
</acyl-settings>
<defs
     id="defs2385">
  </defs>
  <path
     style="fill:none"
     id="path-main"
   d="M 13.09375 4.59375 C 12.693018 4.59375 12.40625 4.8950423 12.40625 5.28125 L 12.40625 41.90625 C 12.40625 42.292462 12.693018 42.59375 13.09375 42.59375 L 23.875 42.59375 L 36.40625 30.78125 L 36.40625 16.78125 L 23.5 4.59375 L 13.09375 4.59375 z M 25.53125 4.59375 L 36.40625 14.84375 L 36.40625 5.28125 C 36.40625 4.8950423 36.056977 4.59375 35.65625 4.59375 L 25.53125 4.59375 z M 24.1875 14.34375 C 25.159996 14.343168 26.275392 19.585102 27.0625 20.15625 C 27.849608 20.727398 33.198928 20.137781 33.5 21.0625 C 33.801072 21.987219 29.143714 24.668671 28.84375 25.59375 C 28.543786 26.518829 30.723924 31.42791 29.9375 32 C 29.151076 32.57209 25.191246 28.968168 24.21875 28.96875 C 23.246254 28.969332 19.255858 32.571148 18.46875 32 C 17.681642 31.428852 19.863572 26.549719 19.5625 25.625 C 19.261428 24.700281 14.606286 22.018829 14.90625 21.09375 C 15.206214 20.168671 20.557326 20.72834 21.34375 20.15625 C 22.130174 19.58416 23.215004 14.344332 24.1875 14.34375 z M 36.40625 32.6875 L 25.90625 42.59375 L 35.65625 42.59375 C 36.056987 42.59375 36.40625 42.292462 36.40625 41.90625 L 36.40625 32.6875 z "
/>
</svg>
