/* XPM */
static char * gnome_gnumeric_xpm[] = {
"32 32 108 2",
"  	c None",
". 	c #616161",
"+ 	c #555555",
"@ 	c #AAAAAA",
"# 	c #FFFFFF",
"$ 	c #BBBBBB",
"% 	c #999999",
"& 	c #DDDDDD",
"* 	c #CCCCCC",
"= 	c #A9A9A9",
"- 	c #DCDCDC",
"; 	c #888888",
"> 	c #777777",
", 	c #666666",
"' 	c #949494",
") 	c #EEEEEE",
"! 	c #BFBFBF",
"~ 	c #939393",
"{ 	c #525252",
"] 	c #454545",
"^ 	c #272727",
"/ 	c #161616",
"( 	c #343434",
"_ 	c #717171",
": 	c #9D9D9D",
"< 	c #878787",
"[ 	c #8A8A8A",
"} 	c #383838",
"| 	c #505050",
"1 	c #656565",
"2 	c #767676",
"3 	c #838383",
"4 	c #484848",
"5 	c #CBCBCB",
"6 	c #989898",
"7 	c #EDEDED",
"8 	c #B1B1B1",
"9 	c #3B3B3B",
"0 	c #727272",
"a 	c #191919",
"b 	c #7B7B7B",
"c 	c #8C8C8C",
"d 	c #909090",
"e 	c #7E7E7E",
"f 	c #5D5D5D",
"g 	c #7C7C7C",
"h 	c #7D7D7D",
"i 	c #626262",
"j 	c #515151",
"k 	c #8D8D8D",
"l 	c #929292",
"m 	c #848484",
"n 	c #818181",
"o 	c #A1A1A1",
"p 	c #959595",
"q 	c #757575",
"r 	c #919191",
"s 	c #686868",
"t 	c #D3D3D3",
"u 	c #9E9E9E",
"v 	c #B8B8B8",
"w 	c #707070",
"x 	c #BABABA",
"y 	c #7F7F7F",
"z 	c #D7D7D7",
"A 	c #A8A8A8",
"B 	c #797979",
"C 	c #232323",
"D 	c #AFAFAF",
"E 	c #5B5B5B",
"F 	c #575757",
"G 	c #A7A7A7",
"H 	c #C6C6C6",
"I 	c #A5A5A5",
"J 	c #434343",
"K 	c #6C6C6C",
"L 	c #C3C3C3",
"M 	c #C5C5C5",
"N 	c #565656",
"O 	c #4A4A4A",
"P 	c #121212",
"Q 	c #6D6D6D",
"R 	c #2A2A2A",
"S 	c #3F3F3F",
"T 	c #323232",
"U 	c #ABABAB",
"V 	c #C0C0C0",
"W 	c #9B9B9B",
"X 	c #242424",
"Y 	c #A0A0A0",
"Z 	c #6A6A6A",
"` 	c #424242",
" .	c #5F5F5F",
"..	c #5C5C5C",
"+.	c #C1C1C1",
"@.	c #CECECE",
"#.	c #D0D0D0",
"$.	c #C2C2C2",
"%.	c #8E8E8E",
"&.	c #737373",
"*.	c #535353",
"=.	c #595959",
"-.	c #2E2E2E",
";.	c #444444",
">.	c #3A3A3A",
",.	c #4C4C4C",
"'.	c #303030",
").	c #0E0E0E",
"  . + + + + + + + + + + + + + + + + + + + + + + + .             ",
". @ # # # # # # # # # # # # # # # # # # # # # # # @ .           ",
"+ # $ @ @ @ @ @ % @ @ @ @ @ @ @ % @ @ @ @ @ @ @ $ # +           ",
"+ # @ & & & & & @ & & & & & & & @ & & & & & & & @ # +           ",
"+ # @ & & & & * % * * * * * * * = * * * * * * * @ # +           ",
"+ # @ & & - * * % * * * * * * * % * * * * * * * @ # +           ",
"+ # @ - * * * * % * * * * * * * % * * * * * * * @ # +           ",
"+ # ; % ; ; ; > , % % % % % % % ; % % % % % % % ' # +           ",
"+ # @ - * * * $ % ) ) ) ) ) ) ) $ ) ) ) ) ) ) ) $ # +           ",
"+ # @ - * * * $ % ) ) ) ) ) ) ) $ ) ) ) ) ) ) ) $ # +           ",
"+ # @ * * * * $ % ) ) ) ) ) ! ~ { ] ^ / ( ] _ ~ : # +           ",
"+ # % @ % % % % < $ $ $ [ ( } | 1 2 < ' 3 2 . | ^ { 4           ",
"+ # @ * * * 5 $ 6 7 8 ( 9 0 ' ' ' ' ' ' ' ' ' < ' 0 } /         ",
"+ # @ * * * 5 $ 6 8 ^ 3 ' ' ' ' ' ' < < < < < < < < ' 0 a       ",
"+ # @ * * * $ $ b ^ 3 ' ' ' < < < < < < < < 3 2 2 2 2 3 3 a     ",
"+ # 6 = % % % c ^ d ' < < < < < < < < 3 2 2 2 2 2 2 2 2 3 3 /   ",
"+ # @ * * * $ e f ' < < < < < < 2 2 2 2 2 2 2 2 2 0 g > h ' i   ",
"+ # @ * * 5 $ j d ' < < 3 2 2 2 2 2 2 2 2 g < k ; l m n n m < / ",
"+ # @ * * 5 $ ^ o 3 2 2 2 2 2 2 2 2 2 ~ p p p l l m n n n q r / ",
"+ # 6 = % % 6 ^ o 2 2 2 2 2 2 s s s e t p p l l m n n n q _ ' / ",
"+ # @ * * 5 $ / u 3 2 2 s s s s s s v - 6 l l m n n n q w n < / ",
"+ # @ * * 5 x / y ' s s s s s s s _ z z A l m n n n q w w m B / ",
"+ # @ * * $ $ C | D d s s s E F F G H H 8 m n n n q w w m 6 . / ",
"+ # 6 I % % 6 ( 9 J D 3 F F F F K L L M M m n n q w w m 6 N O P ",
"+ # = * 5 $ $ Q R S T U D 2 F F o ! ! ! V 3 n q _ m % W j i X   ",
"+ # = * 5 $ $ : / S T X . U D 6 V ! ! x ! Y r p I 6 Z `  .F /   ",
"+ # = * 5 $ $ @ ..C S T X X | = +.@.#.- #.$.W %., ` `  .F /     ",
"+ # $ % % % % ; > Q C S | T X  .y y y n y &.` ` ` *.i F /       ",
"+ @ # # # # # # ) & Y ^ ^ S | _ %.n n y n n *.i 0 =.-./         ",
"  + + + + + + + + + | ;.>.C ^ =.h [ 6 6 6 [ F ,.'./             ",
"                              P P / / / / / P ).                ",
"                                                                "};
