/* XPM */
static char * hide_active_xpm[] = {
"13 13 2 1",
" 	c #0D151D",
".	c #ABADB0",
"             ",
"             ",
"             ",
"             ",
"             ",
"    .   .    ",
"    .. ..    ",
"     ...     ",
"      .      ",
"             ",
"             ",
"             ",
"             "};
