<?xml version="1.0" encoding="UTF-8" standalone="no"?>
<!-- Created with Inkscape (http://www.inkscape.org/) -->

<svg
   xmlns:dc="http://purl.org/dc/elements/1.1/"
   xmlns:cc="http://creativecommons.org/ns#"
   xmlns:rdf="http://www.w3.org/1999/02/22-rdf-syntax-ns#"
   xmlns:svg="http://www.w3.org/2000/svg"
   xmlns="http://www.w3.org/2000/svg"
   xmlns:xlink="http://www.w3.org/1999/xlink"
   xmlns:sodipodi="http://sodipodi.sourceforge.net/DTD/sodipodi-0.dtd"
   xmlns:inkscape="http://www.inkscape.org/namespaces/inkscape"
   version="1.0"
   width="48"
   height="48"
   id="svg2383"
   inkscape:version="0.47 r22583"
   sodipodi:docname="folder-documents.svg">
<acyl-settings>
<linearGradient
     id="linearGradient4321">
    <stop
       style="stop-color:#8B8B8B;stop-opacity:1.0;"
       offset="0.0"
       id="stop1" />
    <stop
       style="stop-color:#505050;stop-opacity:1.0;"
       offset="1.0"
       id="stop2" />
  </linearGradient>
<linearGradient
     inkscape:collect="always"
     xlink:href="#linearGradient4321"
     id="acyl_gradient"
     x1="0.0%"
     y1="100.0%"
     x2="100.0%"
     y2="0.0%" />
<filter>
    </filter>
<use id="1" style="fill:url(#acyl_gradient);filter:url(#filter1111)" xlink:href="#path-main" />
</acyl-settings>
  <defs
     id="defs2385">
  </defs>
  <path
     style="fill:none"
     id="path-main"
     d="M 33.684783,4.3722826 17.065217,13.967391 15.570652,11.1875 3.7038043,18.032609 5.2282609,20.8125 l -2.3913044,1.375 1.7934783,3.108696 -1.8532609,1.046195 -0.5081522,0.298913 0.388587,0.44837 1.763587,1.883152 L 2.5679348,30.019022 2,30.347826 2.4483696,30.766304 14.793478,43.05163 15.0625,43.320652 15.182065,43.5 46,25.714674 33.684783,4.3722826 z M 21.9375,16.478261 l 6.1875,1.524456 6.546196,8.847826 c 0.290737,0.392586 0.176162,0.887242 -0.239131,1.105979 l -9.236413,4.872282 c -0.415309,0.218707 -0.994588,0.09367 -1.285326,-0.298913 L 15.331522,20.961957 c -0.290736,-0.392586 -0.176164,-0.887241 0.23913,-1.105979 L 21.9375,16.478261 z m -16.8288043,9.654891 8.1603263,14.048913 -9.6847829,-9.625 1.8233696,-1.076087 0.5081522,-0.298913 -0.388587,-0.448369 -1.7336956,-1.853261 1.3152174,-0.747283 z" />
</svg>
