<?xml version="1.0" encoding="UTF-8" standalone="no"?>
<!-- Created with Inkscape (http://www.inkscape.org/) -->

<svg
   xmlns:dc="http://purl.org/dc/elements/1.1/"
   xmlns:cc="http://creativecommons.org/ns#"
   xmlns:rdf="http://www.w3.org/1999/02/22-rdf-syntax-ns#"
   xmlns:svg="http://www.w3.org/2000/svg"
   xmlns="http://www.w3.org/2000/svg"
   xmlns:sodipodi="http://sodipodi.sourceforge.net/DTD/sodipodi-0.dtd"
   xmlns:inkscape="http://www.inkscape.org/namespaces/inkscape"
   version="1.0"
   width="48"
   height="48"
   id="svg3229"
   sodipodi:version="0.32"
   inkscape:version="0.47 r22583"
   sodipodi:docname="applications-email-panel.svg"
   inkscape:output_extension="org.inkscape.output.svg.inkscape">
<acyl-settings>
<linearGradient
     id="linearGradient4321">
    <stop
       style="stop-color:#8B8B8B;stop-opacity:1.0;"
       offset="0.0"
       id="stop1" />
    <stop
       style="stop-color:#505050;stop-opacity:1.0;"
       offset="1.0"
       id="stop2" />
  </linearGradient>
<linearGradient
     inkscape:collect="always"
     xlink:href="#linearGradient4321"
     id="acyl_gradient"
     x1="0.0%"
     y1="100.0%"
     x2="100.0%"
     y2="0.0%" />
<filter>
    </filter>
<use id="1" style="fill:url(#acyl_gradient);filter:url(#filter1111)" xlink:href="#path-main" />
</acyl-settings>
  <path
     style="fill:none"
     d="M 42.5625 8.75 L 5.1875 8.78125 C 3.6978404 8.78125 2 10.645778 2 12 L 2 34.75 C 2 36.536835 3.9378936 38.0625 5.5625 38.0625 L 42.34375 38.0625 C 44.292815 38.0625 46 36.425567 46 34.71875 L 46 12.3125 C 46 10.416739 44.322506 8.75 42.5625 8.75 z M 6.5 11.875 L 23.25 28.59375 L 24.6875 28.59375 L 41.5 11.875 L 43.1875 13.5625 L 33.15625 23.71875 L 40.71875 31.4375 L 39.0625 33.09375 L 31.34375 25.40625 L 25.75 31.03125 L 22.25 31.03125 L 16.65625 25.40625 L 8.9375 33.1875 L 7.28125 31.4375 L 14.90625 23.71875 L 4.8125 13.5625 L 6.5 11.875 z "
     id="path-main" />
</svg>
