<?xml version="1.0" encoding="UTF-8" standalone="no"?>
<!-- Created with Inkscape (http://www.inkscape.org/) -->

<svg
   xmlns:dc="http://purl.org/dc/elements/1.1/"
   xmlns:cc="http://creativecommons.org/ns#"
   xmlns:rdf="http://www.w3.org/1999/02/22-rdf-syntax-ns#"
   xmlns:svg="http://www.w3.org/2000/svg"
   xmlns="http://www.w3.org/2000/svg"
   xmlns:sodipodi="http://sodipodi.sourceforge.net/DTD/sodipodi-0.dtd"
   xmlns:inkscape="http://www.inkscape.org/namespaces/inkscape"
   version="1.0"
   width="48"
   height="48"
   id="svg3340"
   inkscape:version="0.47 r22583"
   sodipodi:docname="nm-vpn-standalone-lock.svg">
<acyl-settings>
<linearGradient
     id="linearGradient4321">
    <stop
       style="stop-color:#8B8B8B;stop-opacity:1.0;"
       offset="0.0"
       id="stop1" />
    <stop
       style="stop-color:#505050;stop-opacity:1.0;"
       offset="1.0"
       id="stop2" />
  </linearGradient>
<linearGradient
     inkscape:collect="always"
     xlink:href="#linearGradient4321"
     id="acyl_gradient"
     x1="0.0%"
     y1="100.0%"
     x2="100.0%"
     y2="0.0%" />
<filter>
    </filter>
<use id="1" style="fill:url(#acyl_gradient);filter:url(#filter1111)" xlink:href="#path-main" />
</acyl-settings>
  <path
     style="fill:none"
     id="path-main"
     d="M 22.004206,2 C 16.587319,2 12.22643,6.360889 12.22643,11.777777 l 0,7.333333 -2.4444446,0 c -1.3542221,0 -2.4444443,1.090222 -2.4444443,2.444444 l 0,22.000002 C 7.3375411,44.909778 8.4277633,46 9.7819854,46 l 29.3333316,0 c 1.354222,0 2.444444,-1.090222 2.444444,-2.444444 l 0,-22.000002 c 0,-1.354222 -1.090222,-2.444444 -2.444444,-2.444444 l -2.444445,0 0,-7.333333 C 36.670872,6.360889 32.309984,2 26.893095,2 l -4.888889,0 z m 0,4.888889 4.888889,0 c 2.708444,0 4.888889,2.180444 4.888889,4.888888 l 0,7.333333 -14.666665,0 0,-7.333333 c 0,-2.708444 2.180444,-4.888888 4.888887,-4.888888 z" />
</svg>
