<?xml version="1.0" encoding="UTF-8" standalone="no"?>
<!-- Created with Inkscape (http://www.inkscape.org/) -->

<svg
   xmlns:dc="http://purl.org/dc/elements/1.1/"
   xmlns:cc="http://creativecommons.org/ns#"
   xmlns:rdf="http://www.w3.org/1999/02/22-rdf-syntax-ns#"
   xmlns:svg="http://www.w3.org/2000/svg"
   xmlns="http://www.w3.org/2000/svg"
   xmlns:sodipodi="http://sodipodi.sourceforge.net/DTD/sodipodi-0.dtd"
   xmlns:inkscape="http://www.inkscape.org/namespaces/inkscape"
   version="1.0"
   width="48"
   height="48"
   id="svg3215"
   sodipodi:version="0.32"
   inkscape:version="0.47 r22583"
   sodipodi:docname="ubuntuone-client-idle.svg"
   inkscape:output_extension="org.inkscape.output.svg.inkscape">
<acyl-settings>
<linearGradient
     id="linearGradient4321">
    <stop
       style="stop-color:#8B8B8B;stop-opacity:1.0;"
       offset="0.0"
       id="stop1" />
    <stop
       style="stop-color:#505050;stop-opacity:1.0;"
       offset="1.0"
       id="stop2" />
  </linearGradient>
<linearGradient
     inkscape:collect="always"
     xlink:href="#linearGradient4321"
     id="acyl_gradient"
     x1="0.0%"
     y1="100.0%"
     x2="100.0%"
     y2="0.0%" />
<filter>
    </filter>
<use id="1" style="fill:url(#acyl_gradient);filter:url(#filter1111)" xlink:href="#path-main" />
</acyl-settings>
  <path
     d="m 27.666667,6.2717537 c -4.129782,0 -7.667743,2.5972712 -9.548611,6.3402783 -1.059104,-0.880993 -2.411567,-1.451389 -3.895834,-1.451389 -3.373333,0 -6.1111106,2.737777 -6.1111109,6.111111 0,0.757599 0.12958,1.469216 0.3819445,2.138889 C 4.6564812,21.124883 2,25.006054 2,29.493976 c 0,6.094 4.906,11 11,11 l 22,0 c 6.094,0 11,-4.906 11,-11 0,-4.826978 -3.10134,-8.900303 -7.409722,-10.388889 0.0096,-0.208819 0.07639,-0.399664 0.07639,-0.611111 0,-6.746667 -4.928,-12.2222223 -11,-12.2222223 z"
     id="path-main"
     style="fill:none" />
</svg>
