<?xml version="1.0" encoding="UTF-8" standalone="no"?>
<!-- Created with Inkscape (http://www.inkscape.org/) -->

<svg
   xmlns:dc="http://purl.org/dc/elements/1.1/"
   xmlns:cc="http://creativecommons.org/ns#"
   xmlns:rdf="http://www.w3.org/1999/02/22-rdf-syntax-ns#"
   xmlns:svg="http://www.w3.org/2000/svg"
   xmlns="http://www.w3.org/2000/svg"
   xmlns:sodipodi="http://sodipodi.sourceforge.net/DTD/sodipodi-0.dtd"
   xmlns:inkscape="http://www.inkscape.org/namespaces/inkscape"
   version="1.1"
   width="48"
   height="48"
   id="svg2"
   inkscape:version="0.47 r22583"
   sodipodi:docname="angrydd.svg">
<acyl-settings>
<linearGradient
     id="linearGradient4321">
    <stop
       style="stop-color:#8B8B8B;stop-opacity:1.0;"
       offset="0.0"
       id="stop1" />
    <stop
       style="stop-color:#505050;stop-opacity:1.0;"
       offset="1.0"
       id="stop2" />
  </linearGradient>
<linearGradient
     inkscape:collect="always"
     xlink:href="#linearGradient4321"
     id="acyl_gradient"
     x1="0.0%"
     y1="100.0%"
     x2="100.0%"
     y2="0.0%" />
<filter>
    </filter>
<use id="1" style="fill:url(#acyl_gradient);filter:url(#filter1111)" xlink:href="#path-main" />
</acyl-settings>
  <path
     d="M 12.84318,2 C 10.967046,2 9.4549038,3.4107 9.4549038,5.1667 l 0,8.2514 c 0,1.7561 1.5121422,3.1667 3.3882762,3.1667 l 7.356149,0 c 1.876133,0 3.388285,-1.4106 3.388285,-3.1667 l 0,-8.2514 C 23.587614,3.4107 22.075462,2 20.199329,2 L 12.84318,2 z m 14.444794,0 c -1.876133,0 -3.388285,1.4107 -3.388285,3.1667 l 0,8.2514 c 0,1.7561 1.512152,3.1667 3.388285,3.1667 l 7.35615,0 c 1.876133,0 3.388285,-1.4106 3.388285,-3.1667 l 0,-8.2514 C 38.032409,3.4107 36.520257,2 34.644124,2 l -7.35615,0 z M 5.8882857,16.6964 C 4.012152,16.6964 2.5,18.1069 2.5,19.8631 l 0,8.2514 c 0,1.7562 1.512152,3.1668 3.3882857,3.1668 l 7.3561393,0 c 1.876134,0 3.388286,-1.4106 3.388286,-3.1668 l 0,-8.2514 c 0,-1.7562 -1.512152,-3.1667 -3.388286,-3.1667 l -7.3561393,0 z m 14.4002043,0 c -1.876134,0 -3.388276,1.4105 -3.388276,3.1667 l 0,8.2514 c 0,1.7562 1.512142,3.1668 3.388276,3.1668 l 7.356149,0 c 1.876134,0 3.388276,-1.4106 3.388276,-3.1668 l 0,-8.2514 c 0,-1.7562 -1.512142,-3.1667 -3.388276,-3.1667 l -7.356149,0 z m 14.444795,0 c -1.876124,0 -3.388286,1.4105 -3.388286,3.1667 l 0,8.2514 c 0,1.7562 1.512162,3.1668 3.388286,3.1668 l 7.378439,0 C 43.987868,31.2813 45.5,29.8707 45.5,28.1145 l 0,-8.2514 c 0,-1.7562 -1.512132,-3.1667 -3.388276,-3.1667 l -7.378439,0 z M 12.84318,31.3927 c -1.876134,0 -3.3882762,1.4107 -3.3882762,3.1668 l 0,8.2514 c 0,1.7562 1.5121422,3.1891 3.3882762,3.1891 l 7.356149,0 c 1.876133,0 3.388285,-1.4329 3.388285,-3.1891 l 0,-8.2514 c 0,-1.7561 -1.512152,-3.1668 -3.388285,-3.1668 l -7.356149,0 z m 14.444794,0 c -1.876133,0 -3.388285,1.4107 -3.388285,3.1668 l 0,8.2514 c 0,1.7562 1.512152,3.1891 3.388285,3.1891 l 7.35615,0 c 1.876133,0 3.388285,-1.4329 3.388285,-3.1891 l 0,-8.2514 c 0,-1.7561 -1.512152,-3.1668 -3.388285,-3.1668 l -7.35615,0 z"
     id="path-main"
     style="fill:none" />
</svg>
