<?xml version="1.0" encoding="UTF-8" standalone="no"?>
<!-- Created with Inkscape (http://www.inkscape.org/) -->

<svg
   xmlns:dc="http://purl.org/dc/elements/1.1/"
   xmlns:cc="http://creativecommons.org/ns#"
   xmlns:rdf="http://www.w3.org/1999/02/22-rdf-syntax-ns#"
   xmlns:svg="http://www.w3.org/2000/svg"
   xmlns="http://www.w3.org/2000/svg"
   xmlns:xlink="http://www.w3.org/1999/xlink"
   xmlns:sodipodi="http://sodipodi.sourceforge.net/DTD/sodipodi-0.dtd"
   xmlns:inkscape="http://www.inkscape.org/namespaces/inkscape"
   version="1.0"
   width="48"
   height="48"
   id="svg2383"
   inkscape:version="0.47pre4 r22446"
   sodipodi:docname="applications-development.svg">

<acyl-settings>
<linearGradient
     id="linearGradient4321">
    <stop
       style="stop-color:#8B8B8B;stop-opacity:1.0;"
       offset="0.0"
       id="stop1" />
    <stop
       style="stop-color:#505050;stop-opacity:1.0;"
       offset="1.0"
       id="stop2" />
  </linearGradient>
<linearGradient
     inkscape:collect="always"
     xlink:href="#linearGradient4321"
     id="acyl_gradient"
     x1="0.0%"
     y1="100.0%"
     x2="100.0%"
     y2="0.0%" />
<filter>
    </filter>
<use id="1" style="fill:url(#acyl_gradient);filter:url(#filter1111)" xlink:href="#path-main" />
</acyl-settings>
<defs
     id="defs2385">
  </defs>
  <path
     style="fill:none"
     id="path-main"
   d="M 12.9044,8.9049173 13.053578,20.977152 2.2059767,27.397154 2.3683659,39.780915 13.605701,45.940207 24.096046,39.38985 35.430814,45.940207 45.921159,39.38985 45.953643,27.331976 34.781263,20.749029 34.813736,8.6911566 23.804295,2.1816728 12.9044,8.9049173 z M 23.836223,3.4443524 33.709489,9.3103447 24.161002,14.752682 13.995435,9.3429335 23.836223,3.4443524 z M 33.950046,21.306908 44.891648,27.758784 35.300904,33.393502 24.128524,27.331976 13.443313,33.393502 3.3102235,27.983754 13.93048,21.628928 l 10.201623,5.674927 9.817943,-5.996947 z"
/>
</svg>
