<?xml version="1.0" encoding="UTF-8" standalone="no"?>
<!-- Created with Inkscape (http://www.inkscape.org/) -->

<svg
   xmlns:dc="http://purl.org/dc/elements/1.1/"
   xmlns:cc="http://creativecommons.org/ns#"
   xmlns:rdf="http://www.w3.org/1999/02/22-rdf-syntax-ns#"
   xmlns:svg="http://www.w3.org/2000/svg"
   xmlns="http://www.w3.org/2000/svg"
   xmlns:xlink="http://www.w3.org/1999/xlink"
   xmlns:sodipodi="http://sodipodi.sourceforge.net/DTD/sodipodi-0.dtd"
   xmlns:inkscape="http://www.inkscape.org/namespaces/inkscape"
   version="1.0"
   width="48"
   height="48"
   id="svg2383"
   inkscape:version="0.47pre4 r22446"
   sodipodi:docname="big.qucs.svg"><acyl-settings>
<linearGradient
     id="linearGradient4321">
    <stop
       style="stop-color:#8B8B8B;stop-opacity:1.0;"
       offset="0.0"
       id="stop1" />
    <stop
       style="stop-color:#505050;stop-opacity:1.0;"
       offset="1.0"
       id="stop2" />
  </linearGradient>
<linearGradient
     inkscape:collect="always"
     xlink:href="#linearGradient4321"
     id="acyl_gradient"
     x1="0.0%"
     y1="100.0%"
     x2="100.0%"
     y2="0.0%" />
<filter>
    </filter>
<use id="1" style="fill:url(#acyl_gradient);filter:url(#filter1111)" xlink:href="#path-main" />
</acyl-settings>
<defs
     id="defs2385">
  </defs>
  <path
     style="fill:none"
     id="path-main"
     d="M 12.193016,41.870229 41.258502,7.4444941 44.981549,10.834419 18.604585,41.743545 c -3.526789,0.01727 -2.488882,0.04711 -6.411569,0.126684 z M 21.392148,41.737943 40.661476,18.4195 44.325762,21.786756 27.162869,41.8024 c -1.861288,-0.07349 -3.450243,-0.03963 -5.770721,-0.06446 z m 8.5884,-0.03851 c 0,-0.288849 4.579841,-5.687282 7.668666,-9.137636 1.128488,0.944993 2.322773,1.663787 3.845527,2.848597 l -5.544836,6.39201 c -2.004643,0.02052 -2.594889,-0.03051 -5.969357,-0.102971 z M 12.480353,26.825994 C 5.3491041,28.594859 0.94030003,21.582431 4.9540092,16.743942 8.9368823,11.942626 17.487492,16.322497 15.560917,23.390534 l 5.459187,4.794136 -3.060989,3.330301 c -2.564853,-1.96014 -2.558116,-2.170961 -5.478762,-4.688977 z m -0.211342,-5.386766 c 0.676498,-1.828749 -0.888371,-3.597559 -3.0000747,-3.391056 -3.24472,0.317303 -3.7916006,4.241037 -0.7554572,5.420217 1.4462202,0.561684 3.1345769,-0.350556 3.7555319,-2.029161 z"
/>
</svg>
