<?xml version="1.0" encoding="UTF-8" standalone="no"?>
<!-- Created with Inkscape (http://www.inkscape.org/) -->

<svg
   xmlns:dc="http://purl.org/dc/elements/1.1/"
   xmlns:cc="http://creativecommons.org/ns#"
   xmlns:rdf="http://www.w3.org/1999/02/22-rdf-syntax-ns#"
   xmlns:svg="http://www.w3.org/2000/svg"
   xmlns="http://www.w3.org/2000/svg"
   xmlns:xlink="http://www.w3.org/1999/xlink"
   xmlns:sodipodi="http://sodipodi.sourceforge.net/DTD/sodipodi-0.dtd"
   xmlns:inkscape="http://www.inkscape.org/namespaces/inkscape"
   version="1.0"
   width="48"
   height="48"
   id="svg4289"
   inkscape:version="0.47pre4 r22446"
   sodipodi:docname="nm-vpn-lock.svg">  

<acyl-settings>
<linearGradient
     id="linearGradient4321">
    <stop
       style="stop-color:#8B8B8B;stop-opacity:1.0;"
       offset="0.0"
       id="stop1" />
    <stop
       style="stop-color:#505050;stop-opacity:1.0;"
       offset="1.0"
       id="stop2" />
  </linearGradient>
<linearGradient
     inkscape:collect="always"
     xlink:href="#linearGradient4321"
     id="acyl_gradient"
     x1="0.0%"
     y1="100.0%"
     x2="100.0%"
     y2="0.0%" />
<filter>
    </filter>
<use id="1" style="fill:url(#acyl_gradient);filter:url(#filter1111)" xlink:href="#path-main" />
</acyl-settings>
<defs
     id="defs4291">
  </defs>
  <path
     style="fill:none"
     id="path-main"
     d="m 35.493287,23.11117 c -4.074895,0 -6.985535,2.383453 -6.985535,6.281404 l 0,3.42622 -1.164256,0 c -1.164255,0 -1.746384,0.571038 -1.746384,1.713111 l 0,9.707622 c 0,0.559802 0.582129,1.71311 1.746384,1.71311 l 17.105257,0 c 0.940708,-0.0054 1.522837,-1.15331 1.522837,-1.71311 l 0,-9.707622 c 0,-1.142073 -0.582129,-1.71851 -1.746384,-1.71851 l -1.164255,0.0054 0,-3.426221 c 0,-3.997264 -2.910639,-6.281411 -6.985536,-6.281411 l -0.582128,0 z m 0,2.855183 0.582128,0 c 4.074897,0 4.074897,3.426221 4.074897,4.568295 l 0,2.284146 -8.73192,0 0,-2.284146 c 0,-1.142074 0,-4.568295 4.074895,-4.568295 z" />
</svg>
