<?xml version="1.0" encoding="UTF-8" standalone="no"?>
<!-- Created with Inkscape (http://www.inkscape.org/) -->

<svg
   xmlns:dc="http://purl.org/dc/elements/1.1/"
   xmlns:cc="http://creativecommons.org/ns#"
   xmlns:rdf="http://www.w3.org/1999/02/22-rdf-syntax-ns#"
   xmlns:svg="http://www.w3.org/2000/svg"
   xmlns="http://www.w3.org/2000/svg"
   xmlns:sodipodi="http://sodipodi.sourceforge.net/DTD/sodipodi-0.dtd"
   xmlns:inkscape="http://www.inkscape.org/namespaces/inkscape"
   width="48"
   height="48"
   id="svg2"
   version="1.1"
   inkscape:version="0.47 r22583"
   sodipodi:docname="picasa.svg">
<acyl-settings>
<linearGradient
     id="linearGradient4321">
    <stop
       style="stop-color:#8B8B8B;stop-opacity:1.0;"
       offset="0.0"
       id="stop1" />
    <stop
       style="stop-color:#505050;stop-opacity:1.0;"
       offset="1.0"
       id="stop2" />
  </linearGradient>
<linearGradient
     inkscape:collect="always"
     xlink:href="#linearGradient4321"
     id="acyl_gradient"
     x1="0.0%"
     y1="100.0%"
     x2="100.0%"
     y2="0.0%" />
<filter>
    </filter>
<use id="1" style="fill:url(#acyl_gradient);filter:url(#filter1111)" xlink:href="#path-main" />
</acyl-settings>
  <path
     style="fill:none"
     d="m 22.90625,2.0000002 c -2.504368,0.1237664 -4.875476,0.7012587 -7.09375,1.59375 a 0.25091603,0.25091603 0 0 0 -0.0625,0.03125 0.25091603,0.25091603 0 0 0 -0.09375,0.09375 0.25091603,0.25091603 0 0 0 0,0.03125 0.25091603,0.25091603 0 0 0 0,0.125 0.25091603,0.25091603 0 0 0 0.03125,0.09375 0.25091603,0.25091603 0 0 0 0.03125,0.03125 l 16.75,16.1562498 A 0.25091603,0.25091603 0 0 0 32.5,20.1875 a 0.25091603,0.25091603 0 0 0 0.03125,0 0.25091603,0.25091603 0 0 0 0.0625,0.03125 0.25091603,0.25091603 0 0 0 0.03125,0 0.25091603,0.25091603 0 0 0 0.0625,0 0.25091603,0.25091603 0 0 0 0.03125,-0.03125 0.25091603,0.25091603 0 0 0 0.0625,0 0.25091603,0.25091603 0 0 0 0.03125,-0.03125 0.25091603,0.25091603 0 0 0 0.09375,-0.1875 l -0.125,-15.9062498 c -1.21e-4,-0.008 -1.21e-4,-0.02345 0,-0.03125 A 0.25091603,0.25091603 0 0 0 32.75,3.9375002 0.25091603,0.25091603 0 0 0 32.71875,3.8750002 0.25091603,0.25091603 0 0 0 32.625,3.7812502 c -2.648131,-1.13012 -5.562601,-1.78125 -8.625,-1.78125 -0.362532,0 -0.735984,-0.017681 -1.09375,0 z m -8.96875,2.46875 a 0.25091603,0.25091603 0 0 0 -0.03125,0.03125 0.25091603,0.25091603 0 0 0 -0.0625,0 0.25091603,0.25091603 0 0 0 0,0.03125 C 6.81561,8.2032002 2,15.55461 2,24.03125 2,26.10155 2.30909,28.10087 2.84375,30 a 0.25091603,0.25091603 0 0 0 0,0.03125 0.25091603,0.25091603 0 0 0 0.15625,0.125 0.25091603,0.25091603 0 0 0 0.125,0 0.25091603,0.25091603 0 0 0 0.03125,0 0.25091603,0.25091603 0 0 0 0.03125,-0.03125 0.25091603,0.25091603 0 0 0 0.03125,0 A 0.25091603,0.25091603 0 0 0 3.25,30.09375 l 18.71875,-17.625 A 0.25091603,0.25091603 0 0 0 22,12.4375 a 0.25091603,0.25091603 0 0 0 0.03125,-0.09375 0.25091603,0.25091603 0 0 0 0,-0.125 A 0.25091603,0.25091603 0 0 0 22,12.15625 0.25091603,0.25091603 0 0 0 21.96875,12.125 L 14.125,4.5625002 a 0.25091603,0.25091603 0 0 0 -0.03125,-0.03125 0.25091603,0.25091603 0 0 0 -0.0625,-0.03125 0.25091603,0.25091603 0 0 0 -0.09375,-0.03125 z M 34.5,4.7500002 a 0.25091603,0.25091603 0 0 0 -0.03125,0.03125 0.25091603,0.25091603 0 0 0 -0.03125,0.03125 0.25091603,0.25091603 0 0 0 -0.03125,0 0.25091603,0.25091603 0 0 0 -0.0625,0.0625 0.25091603,0.25091603 0 0 0 -0.03125,0.09375 0.25091603,0.25091603 0 0 0 0,0.0625 0.25091603,0.25091603 0 0 0 0,0.03125 0.25091603,0.25091603 0 0 0 0,0.0625 L 34.5,30.6875 a 0.25091603,0.25091603 0 0 0 0,0.03125 c 0.008,0.0625 0.008,0.12506 0,0.1875 a 0.25091603,0.25091603 0 0 0 0,0.03125 0.25091603,0.25091603 0 0 0 0.03125,0.09375 0.25091603,0.25091603 0 0 0 0.03125,0.0625 0.25091603,0.25091603 0 0 0 0.03125,0.03125 0.25091603,0.25091603 0 0 0 0.09375,0.03125 0.25091603,0.25091603 0 0 0 0.0625,0.03125 l 9.90625,-0.0625 a 0.25091603,0.25091603 0 0 0 0.03125,-0.03125 0.25091603,0.25091603 0 0 0 0.09375,-0.03125 0.25091603,0.25091603 0 0 0 0.03125,0 0.25091603,0.25091603 0 0 0 0.03125,-0.03125 0.25091603,0.25091603 0 0 0 0.03125,-0.0625 0.25091603,0.25091603 0 0 0 0.03125,-0.03125 C 45.62807,28.7598 46,26.45024 46,24.03125 46,15.80971 41.465099,8.6804602 34.78125,4.9062502 A 0.25091603,0.25091603 0 0 0 34.75,4.8750002 0.25091603,0.25091603 0 0 0 34.71875,4.8437502 c -0.0129,-0.007 -0.01845,-0.02415 -0.03125,-0.03125 a 0.25091603,0.25091603 0 0 0 -0.0625,-0.03125 0.25091603,0.25091603 0 0 0 -0.09375,0 A 0.25091603,0.25091603 0 0 0 34.5,4.7500002 z M 13.375,22.6875 a 0.25091603,0.25091603 0 0 0 -0.03125,0.03125 0.25091603,0.25091603 0 0 0 -0.03125,0 A 0.25091603,0.25091603 0 0 0 13.25,22.75 0.25091603,0.25091603 0 0 0 13.21875,22.78125 L 4.03125,31.4375 A 0.25091603,0.25091603 0 0 0 4,31.46875 c -0.0692,0.0837 -0.19414,0.14111 -0.34375,0.1875 A 0.25091603,0.25091603 0 0 0 3.59375,31.6875 0.25091603,0.25091603 0 0 0 3.5625,31.71875 0.25091603,0.25091603 0 0 0 3.5,31.875 0.25091603,0.25091603 0 0 0 3.5,31.96875 0.25091603,0.25091603 0 0 0 3.5,32 c 1.88684,4.84485 5.45265,8.84005 9.96875,11.3125 a 0.25091603,0.25091603 0 0 0 0.03125,0 0.25091603,0.25091603 0 0 0 0.0625,0.03125 0.25091603,0.25091603 0 0 0 0.03125,0 0.25091603,0.25091603 0 0 0 0.09375,-0.03125 0.25091603,0.25091603 0 0 0 0.0625,-0.03125 0.25091603,0.25091603 0 0 0 0.03125,-0.0625 0.25091603,0.25091603 0 0 0 0.03125,-0.09375 0.25091603,0.25091603 0 0 0 0,-0.03125 l -0.1875,-20.125 a 0.25091603,0.25091603 0 0 0 0,-0.09375 A 0.25091603,0.25091603 0 0 0 13.59375,22.8125 0.25091603,0.25091603 0 0 0 13.53125,22.75 0.25091603,0.25091603 0 0 0 13.46875,22.71875 0.25091603,0.25091603 0 0 0 13.375,22.6875 z m 30.5,9.90625 A 0.25091603,0.25091603 0 0 0 43.84375,32.625 l -0.03125,0 a 0.25091603,0.25091603 0 0 0 -0.03125,0 L 15.5,32.8125 a 0.25091603,0.25091603 0 0 0 -0.09375,0 0.25091603,0.25091603 0 0 0 -0.03125,0.03125 0.25091603,0.25091603 0 0 0 -0.0625,0.03125 0.25091603,0.25091603 0 0 0 -0.0625,0.15625 0.25091603,0.25091603 0 0 0 0,0.03125 l 0.09375,10.96875 a 0.25091603,0.25091603 0 0 0 0,0.09375 0.25091603,0.25091603 0 0 0 0.03125,0.0625 0.25091603,0.25091603 0 0 0 0.0625,0.0625 0.25091603,0.25091603 0 0 0 0.03125,0 A 0.25091603,0.25091603 0 0 0 15.5,44.28125 C 18.122519,45.38633 20.972529,46 24,46 32.89372,46 40.50323,40.69157 43.96875,33.09375 43.97475,33.08055 43.9941,33.0757 44,33.0625 c 0.006,-0.0132 0.02535,-0.01805 0.03125,-0.03125 A 0.25091603,0.25091603 0 0 0 44.0625,32.96875 0.25091603,0.25091603 0 0 0 44.09375,32.875 0.25091603,0.25091603 0 0 0 44.0625,32.75 0.25091603,0.25091603 0 0 0 43.96875,32.65625 0.25091603,0.25091603 0 0 0 43.90625,32.625 0.25091603,0.25091603 0 0 0 43.875,32.59375 z"
     id="path-main" />
</svg>
