<?xml version="1.0" encoding="UTF-8" standalone="no"?>
<!-- Created with Inkscape (http://www.inkscape.org/) -->

<svg
   xmlns:dc="http://purl.org/dc/elements/1.1/"
   xmlns:cc="http://creativecommons.org/ns#"
   xmlns:rdf="http://www.w3.org/1999/02/22-rdf-syntax-ns#"
   xmlns:svg="http://www.w3.org/2000/svg"
   xmlns="http://www.w3.org/2000/svg"
   xmlns:xlink="http://www.w3.org/1999/xlink"
   xmlns:sodipodi="http://sodipodi.sourceforge.net/DTD/sodipodi-0.dtd"
   xmlns:inkscape="http://www.inkscape.org/namespaces/inkscape"
   version="1.0"
   width="48"
   height="48"
   id="svg2383"
   inkscape:version="0.47pre4 r22446"
   sodipodi:docname="folder-bookmarks.svg">

<acyl-settings>
<linearGradient
     id="linearGradient4321">
    <stop
       style="stop-color:#8B8B8B;stop-opacity:1.0;"
       offset="0.0"
       id="stop1" />
    <stop
       style="stop-color:#505050;stop-opacity:1.0;"
       offset="1.0"
       id="stop2" />
  </linearGradient>
<linearGradient
     inkscape:collect="always"
     xlink:href="#linearGradient4321"
     id="acyl_gradient"
     x1="0.0%"
     y1="100.0%"
     x2="100.0%"
     y2="0.0%" />
<filter>
    </filter>
<use id="1" style="fill:url(#acyl_gradient);filter:url(#filter1111)" xlink:href="#path-main" />
</acyl-settings>
<defs
     id="defs2385">
  </defs>
  <path
     style="fill:none"
     id="path-main"
     d="M 3 7 L 3 42 L 45 42 L 45 10.5 L 25.75 10.5 L 25.75 7 L 3 7 z M 4.75 8.75 L 24 8.75 L 24 12.25 L 43.25 12.25 L 43.25 15.75 L 20.5 15.75 L 20.5 12.25 L 4.75 12.25 L 4.75 8.75 z M 23.1875 18.75 C 24.159996 18.749418 25.275392 23.991352 26.0625 24.5625 C 26.849608 25.133648 32.198928 24.544031 32.5 25.46875 C 32.801072 26.393469 28.143714 29.074921 27.84375 30 C 27.543786 30.925079 29.723924 35.83416 28.9375 36.40625 C 28.151076 36.97834 24.191246 33.374418 23.21875 33.375 C 22.246254 33.375582 18.255858 36.977398 17.46875 36.40625 C 16.681642 35.835102 18.863572 30.924719 18.5625 30 C 18.261428 29.075281 13.606286 26.425079 13.90625 25.5 C 14.206214 24.574921 19.557326 25.13459 20.34375 24.5625 C 21.130174 23.99041 22.215004 18.750582 23.1875 18.75 z "
/>
</svg>
