<?xml version="1.0" encoding="UTF-8" standalone="no"?>
<!-- Created with Inkscape (http://www.inkscape.org/) -->

<svg
   xmlns:dc="http://purl.org/dc/elements/1.1/"
   xmlns:cc="http://creativecommons.org/ns#"
   xmlns:rdf="http://www.w3.org/1999/02/22-rdf-syntax-ns#"
   xmlns:svg="http://www.w3.org/2000/svg"
   xmlns="http://www.w3.org/2000/svg"
   xmlns:xlink="http://www.w3.org/1999/xlink"
   xmlns:sodipodi="http://sodipodi.sourceforge.net/DTD/sodipodi-0.dtd"
   xmlns:inkscape="http://www.inkscape.org/namespaces/inkscape"
   version="1.0"
   width="48"
   height="48"
   id="svg2383"
   inkscape:version="0.47 r22583"
   sodipodi:docname="folder_home.svg">
<acyl-settings>
<linearGradient
     id="linearGradient4321">
    <stop
       style="stop-color:#8B8B8B;stop-opacity:1.0;"
       offset="0.0"
       id="stop1" />
    <stop
       style="stop-color:#505050;stop-opacity:1.0;"
       offset="1.0"
       id="stop2" />
  </linearGradient>
<linearGradient
     inkscape:collect="always"
     xlink:href="#linearGradient4321"
     id="acyl_gradient"
     x1="0.0%"
     y1="100.0%"
     x2="100.0%"
     y2="0.0%" />
<filter>
    </filter>
<use id="1" style="fill:url(#acyl_gradient);filter:url(#filter1111)" xlink:href="#path-main" />
</acyl-settings>
  <path
     style="fill:none"
     d="M 3.84375 7.125 C 2.823171 7.125 2 7.948173 2 8.96875 L 2 39.03125 C 2 40.05183 2.823171 40.875 3.84375 40.875 L 44.15625 40.875 C 45.176828 40.875 46 40.05183 46 39.03125 L 46 10.78125 C 46 9.7606715 45.176828 8.9375 44.15625 8.9375 L 15.6875 8.9375 L 14.0625 7.125 L 3.84375 7.125 z M 24.5 14.40625 L 35.21875 25.5 L 33.09375 25.46875 L 33.1875 34.375 L 16.5625 34.40625 L 16.53125 25.53125 L 14.0625 25.53125 L 24.5 14.40625 z "
     id="path-main" />
</svg>
