<?xml version="1.0" encoding="UTF-8" standalone="no"?>
<!-- Created with Inkscape (http://www.inkscape.org/) -->

<svg
   xmlns:dc="http://purl.org/dc/elements/1.1/"
   xmlns:cc="http://creativecommons.org/ns#"
   xmlns:rdf="http://www.w3.org/1999/02/22-rdf-syntax-ns#"
   xmlns:svg="http://www.w3.org/2000/svg"
   xmlns="http://www.w3.org/2000/svg"
   xmlns:xlink="http://www.w3.org/1999/xlink"
   xmlns:sodipodi="http://sodipodi.sourceforge.net/DTD/sodipodi-0.dtd"
   xmlns:inkscape="http://www.inkscape.org/namespaces/inkscape"
   version="1.0"
   width="48"
   height="48"
   id="svg2383"
   inkscape:version="0.47 r22583"
   sodipodi:docname="folder-system.svg">
<acyl-settings>
<linearGradient
     id="linearGradient4321">
    <stop
       style="stop-color:#8B8B8B;stop-opacity:1.0;"
       offset="0.0"
       id="stop1" />
    <stop
       style="stop-color:#505050;stop-opacity:1.0;"
       offset="1.0"
       id="stop2" />
  </linearGradient>
<linearGradient
     inkscape:collect="always"
     xlink:href="#linearGradient4321"
     id="acyl_gradient"
     x1="0.0%"
     y1="100.0%"
     x2="100.0%"
     y2="0.0%" />
<filter>
    </filter>
<use id="1" style="fill:url(#acyl_gradient);filter:url(#filter1111)" xlink:href="#path-main" />
</acyl-settings>
  <path
     style="fill:none"
     d="M 3.84375 7.125 C 2.823171 7.125 2 7.948173 2 8.96875 L 2 39.03125 C 2 40.05183 2.823171 40.875 3.84375 40.875 L 44.15625 40.875 C 45.176828 40.875 46 40.05183 46 39.03125 L 46 10.78125 C 46 9.7606715 45.176828 8.9375 44.15625 8.9375 L 15.6875 8.9375 L 14.0625 7.125 L 3.84375 7.125 z M 33.625 13.03125 L 36.6875 16.15625 L 33.625 18.875 L 32.40625 19 L 26.8125 24.6875 L 34.375 32.25 C 34.93576 32.81365 34.93576 33.7176 34.375 34.28125 L 33.25 35.40625 C 32.689242 35.969898 31.810759 35.969897 31.25 35.40625 L 23.6875 27.8125 L 22.625 28.8125 C 23.336705 29.926364 23.422163 31.234625 22.6875 31.96875 L 17.96875 36.6875 C 17.069491 37.586099 15.324522 37.354865 14.09375 36.125 L 13.65625 35.625 C 12.425478 34.395136 12.131991 32.711098 13.03125 31.8125 L 17.78125 27.09375 C 18.546634 26.328934 19.885561 26.38863 21.03125 27.1875 L 22.0625 26.15625 L 19.21875 23.3125 C 17.949031 24.229496 16.300746 23.962892 15.15625 22.8125 L 13.46875 21.125 C 12.209914 19.859677 12.208058 17.845636 13.4375 16.5625 C 14.518447 17.718828 15.673672 18.804051 16.78125 19.9375 L 18.09375 19.9375 L 19 19.03125 L 19 17.71875 L 15.625 14.3125 C 16.901557 13.076719 18.928668 13.140929 20.1875 14.40625 L 21.84375 16.0625 C 22.988243 17.212895 23.224794 18.879989 22.3125 20.15625 L 25.15625 23 L 30.71875 17.40625 L 31.125 15.9375 L 33.625 13.03125 z "
     id="path-main" />
</svg>
